<svg width="270" height="270" viewBox="0 0 270 270" fill="none" xmlns="http://www.w3.org/2000/svg">
<g filter="url(#filter0_ii_2335_18746)">
<rect width="270" height="270" rx="36" fill="url(#paint0_linear_2335_18746)"/>
</g>
<g filter="url(#filter1_ii_2335_18746)">
<path d="M210.518 230.93C223.411 230.807 230.616 223.918 230.677 211.291C230.831 183.076 231.398 154.845 230.524 126.661C229.528 94.4416 214.918 69.3411 187.446 52.1266C166.32 38.8706 142.865 37.5972 119.026 39.9599C97.2416 42.1079 78.7684 51.5896 63.6527 67.5153C42.2054 90.0689 37.2231 117.67 39.5073 147.343C42.834 190.594 74.0313 224.47 116.926 229.533C121.092 230.026 126.336 230.338 131.863 230.536C151.732 231.248 183.971 231.075 203.853 230.978C206.075 230.967 208.296 230.951 210.518 230.93ZM136.196 187.947C136.196 187.943 136.193 187.94 136.188 187.94C109.532 188.457 84.41 164.493 84.0881 138.229C83.9348 125.111 89.2544 120.171 100.737 125.633C124.652 137.002 147.341 136.879 170.72 124.298C180.654 118.944 185.744 124.436 186.464 135.084C188.243 161.517 163.749 187.413 136.204 187.955C136.2 187.955 136.196 187.951 136.196 187.947Z" fill="white"/>
</g>
<defs>
<filter id="filter0_ii_2335_18746" x="0" y="0" width="270" height="276" filterUnits="userSpaceOnUse" color-interpolation-filters="sRGB">
<feFlood flood-opacity="0" result="BackgroundImageFix"/>
<feBlend mode="normal" in="SourceGraphic" in2="BackgroundImageFix" result="shape"/>
<feColorMatrix in="SourceAlpha" type="matrix" values="0 0 0 0 0 0 0 0 0 0 0 0 0 0 0 0 0 0 127 0" result="hardAlpha"/>
<feOffset dy="1"/>
<feGaussianBlur stdDeviation="0.5"/>
<feComposite in2="hardAlpha" operator="arithmetic" k2="-1" k3="1"/>
<feColorMatrix type="matrix" values="0 0 0 0 1 0 0 0 0 1 0 0 0 0 1 0 0 0 0.32 0"/>
<feBlend mode="normal" in2="shape" result="effect1_innerShadow_2335_18746"/>
<feColorMatrix in="SourceAlpha" type="matrix" values="0 0 0 0 0 0 0 0 0 0 0 0 0 0 0 0 0 0 127 0" result="hardAlpha"/>
<feOffset dy="6"/>
<feGaussianBlur stdDeviation="6"/>
<feComposite in2="hardAlpha" operator="arithmetic" k2="-1" k3="1"/>
<feColorMatrix type="matrix" values="0 0 0 0 1 0 0 0 0 1 0 0 0 0 1 0 0 0 0.2 0"/>
<feBlend mode="normal" in2="effect1_innerShadow_2335_18746" result="effect2_innerShadow_2335_18746"/>
</filter>
<filter id="filter1_ii_2335_18746" x="39" y="39" width="192" height="198.069" filterUnits="userSpaceOnUse" color-interpolation-filters="sRGB">
<feFlood flood-opacity="0" result="BackgroundImageFix"/>
<feBlend mode="normal" in="SourceGraphic" in2="BackgroundImageFix" result="shape"/>
<feColorMatrix in="SourceAlpha" type="matrix" values="0 0 0 0 0 0 0 0 0 0 0 0 0 0 0 0 0 0 127 0" result="hardAlpha"/>
<feOffset dy="1"/>
<feGaussianBlur stdDeviation="0.5"/>
<feComposite in2="hardAlpha" operator="arithmetic" k2="-1" k3="1"/>
<feColorMatrix type="matrix" values="0 0 0 0 1 0 0 0 0 1 0 0 0 0 1 0 0 0 0.32 0"/>
<feBlend mode="normal" in2="shape" result="effect1_innerShadow_2335_18746"/>
<feColorMatrix in="SourceAlpha" type="matrix" values="0 0 0 0 0 0 0 0 0 0 0 0 0 0 0 0 0 0 127 0" result="hardAlpha"/>
<feOffset dy="6"/>
<feGaussianBlur stdDeviation="6"/>
<feComposite in2="hardAlpha" operator="arithmetic" k2="-1" k3="1"/>
<feColorMatrix type="matrix" values="0 0 0 0 0.310221 0 0 0 0 0.274529 0 0 0 0 0.274529 0 0 0 0.2 0"/>
<feBlend mode="normal" in2="effect1_innerShadow_2335_18746" result="effect2_innerShadow_2335_18746"/>
</filter>
<linearGradient id="paint0_linear_2335_18746" x1="135" y1="209.5" x2="-9.49999" y2="10.5" gradientUnits="userSpaceOnUse">
<stop stop-color="#0641FB"/>
<stop offset="0.9999" stop-color="#0075FF"/>
<stop offset="1" stop-color="white"/>
</linearGradient>
</defs>
</svg>
