<svg width="16" height="16" viewBox="0 0 16 16" fill="none" xmlns="http://www.w3.org/2000/svg">
<path d="M7.99999 9.33317V14.6665H2.66666C2.66666 13.252 3.22856 11.8955 4.22875 10.8953C5.22895 9.89507 6.5855 9.33317 7.99999 9.33317ZM7.99999 8.6665C5.78999 8.6665 3.99999 6.8765 3.99999 4.6665C3.99999 2.4565 5.78999 0.666504 7.99999 0.666504C10.21 0.666504 12 2.4565 12 4.6665C12 6.8765 10.21 8.6665 7.99999 8.6665ZM9.72999 12.5405C9.64544 12.185 9.64544 11.8147 9.72999 11.4592L9.06866 11.0772L9.73532 9.9225L10.3967 10.3045C10.6621 10.0531 10.983 9.8677 11.3333 9.76317V8.99984H12.6667V9.76317C13.0213 9.8685 13.3413 10.0565 13.6033 10.3045L14.2647 9.9225L14.9313 11.0772L14.2707 11.4592C14.355 11.8147 14.355 12.185 14.2707 12.5405L14.9313 12.9225L14.2647 14.0772L13.6033 13.6952C13.3379 13.9466 13.017 14.132 12.6667 14.2365V14.9998H11.3333V14.2365C10.983 14.132 10.6621 13.9466 10.3967 13.6952L9.73532 14.0772L9.06866 12.9225L9.72999 12.5405ZM12 11.3332C11.8232 11.3332 11.6536 11.4034 11.5286 11.5284C11.4036 11.6535 11.3333 11.823 11.3333 11.9998C11.3333 12.1766 11.4036 12.3462 11.5286 12.4712C11.6536 12.5963 11.8232 12.6665 12 12.6665C12.1768 12.6665 12.3464 12.5963 12.4714 12.4712C12.5964 12.3462 12.6667 12.1766 12.6667 11.9998C12.6667 11.823 12.5964 11.6535 12.4714 11.5284C12.3464 11.4034 12.1768 11.3332 12 11.3332Z" fill="#787486"/>
</svg>
