<svg width="15" height="15" viewBox="0 0 15 15" fill="none" xmlns="http://www.w3.org/2000/svg">
    <g clip-path="url(#clip0_1403_13841)">
        <path
            d="M5 0C2.93187 0 1.25 1.68187 1.25 3.75C1.25 5.81812 2.93187 7.5 5 7.5C7.06812 7.5 8.75 5.81812 8.75 3.75C8.75 1.68187 7.06812 0 5 0ZM5 6.25C3.62125 6.25 2.5 5.12875 2.5 3.75C2.5 2.37125 3.62125 1.25 5 1.25C6.37875 1.25 7.5 2.37125 7.5 3.75C7.5 5.12875 6.37875 6.25 5 6.25ZM2.8125 8.75H6.25V10H2.8125C1.95125 10 1.25 10.7013 1.25 11.5625V15H0V11.5625C0 10.0119 1.26188 8.75 2.8125 8.75ZM14.0625 11.25C14.0625 10.9625 14.0069 10.6906 13.9262 10.4294L14.8112 9.91938L14.1875 8.83625L13.3056 9.34438C12.9275 8.93688 12.435 8.64125 11.875 8.51313V7.5H10.625V8.51313C10.065 8.64125 9.57188 8.93688 9.19438 9.34438L8.3125 8.83625L7.68875 9.91938L8.57375 10.4294C8.49312 10.6906 8.4375 10.9625 8.4375 11.25C8.4375 11.5375 8.49312 11.8094 8.57375 12.0706L7.68875 12.5806L8.3125 13.6637L9.19438 13.1556C9.5725 13.5631 10.065 13.8587 10.625 13.9869V15H11.875V13.9869C12.435 13.8587 12.9281 13.5631 13.3056 13.1556L14.1875 13.6637L14.8112 12.5806L13.9262 12.0706C14.0069 11.8094 14.0625 11.5375 14.0625 11.25ZM11.25 12.8125C10.3888 12.8125 9.6875 12.1112 9.6875 11.25C9.6875 10.3888 10.3888 9.6875 11.25 9.6875C12.1112 9.6875 12.8125 10.3888 12.8125 11.25C12.8125 12.1112 12.1112 12.8125 11.25 12.8125Z"
            fill="black" />
    </g>
    <defs>
        <clipPath id="clip0_1403_13841">
            <rect width="15" height="15" fill="white" />
        </clipPath>
    </defs>
</svg>
    