<svg width="16" height="16" viewBox="0 0 16 16" fill="none" xmlns="http://www.w3.org/2000/svg">
<path d="M15.8952 8.18243C15.8959 7.6373 15.8495 7.0931 15.7565 6.55585H8.15985V9.6368H12.5109C12.4218 10.1289 12.2334 10.598 11.9569 11.0157C11.6804 11.4335 11.3215 11.7914 10.902 12.0678V14.0677H13.4988C15.0192 12.6755 15.8952 10.6168 15.8952 8.18243Z" fill="white"/>
<path d="M8.15981 16C10.3336 16 12.164 15.2911 13.4987 14.069L10.902 12.0691C10.1792 12.5557 9.2484 12.8335 8.15981 12.8335C6.05871 12.8335 4.27535 11.4269 3.63763 9.53143H0.962585V11.5924C1.63304 12.9173 2.66112 14.0311 3.93203 14.8094C5.20295 15.5877 6.66668 15.9999 8.15981 16Z" fill="white"/>
<path d="M3.63759 9.53117C3.30046 8.53794 3.30046 7.46234 3.63759 6.4691V4.4081H0.962548C0.398535 5.52266 0.104797 6.75276 0.104797 8.00014C0.104797 9.24752 0.398535 10.4776 0.962548 11.5922L3.63759 9.53117Z" fill="white"/>
<path d="M8.15981 3.16703C9.30858 3.14839 10.4186 3.57943 11.2499 4.36697L13.5491 2.08375C12.0912 0.723906 10.1598 -0.0226729 8.15981 0.000524849C6.66668 0.000592429 5.20295 0.412787 3.93203 1.19109C2.66112 1.96939 1.63304 3.08317 0.962585 4.40808L3.63763 6.46909C4.27535 4.57363 6.05871 3.16703 8.15981 3.16703Z" fill="white"/>
</svg>
