<svg width="24" height="24" viewBox="0 0 24 24" fill="none" xmlns="http://www.w3.org/2000/svg">
<path d="M9 22H15C20 22 22 20 22 15V9C22 4 20 2 15 2H9C4 2 2 4 2 9V15C2 20 4 22 9 22Z" fill="#0641FB" fill-opacity="0.09"/>
<path d="M12.9098 7.84001L7.71979 13.03C7.51979 13.23 7.3298 13.62 7.2898 13.9L7.0098 15.88C6.9098 16.6 7.40979 17.1 8.12979 17L10.1098 16.72C10.3898 16.68 10.7798 16.49 10.9798 16.29L16.1698 11.1C17.0598 10.21 17.4898 9.17 16.1698 7.85C14.8498 6.52 13.8098 6.94001 12.9098 7.84001Z" stroke="#0641FB" stroke-width="1.5" stroke-miterlimit="10" stroke-linecap="round" stroke-linejoin="round"/>
<path d="M12.1699 8.58001C12.6099 10.15 13.8399 11.39 15.4199 11.83" stroke="#0641FB" stroke-width="1.5" stroke-miterlimit="10" stroke-linecap="round" stroke-linejoin="round"/>
</svg>
