<svg width="130" height="26" viewBox="0 0 130 26" fill="none" xmlns="http://www.w3.org/2000/svg">
<g filter="url(#filter0_ii_210_294)">
<path d="M16.75 22.9428C18.0091 22.9302 18.7127 22.227 18.7187 20.938C18.7337 18.0577 18.7891 15.1759 18.7037 12.2987C18.6064 9.00963 17.1797 6.44729 14.4968 4.68999C12.4338 3.33677 10.1432 3.20677 7.81514 3.44797C5.68773 3.66723 3.88369 4.63517 2.40752 6.26091C0.313034 8.56325 -0.173532 11.3809 0.0495397 14.41C0.374417 18.8252 3.42106 22.2834 7.61003 22.8002C9.2464 23.0024 12.5835 22.9084 12.5835 22.946C13.9728 22.946 15.3607 22.957 16.75 22.9428ZM9.49193 18.5542C6.88841 18.6075 4.43462 16.161 4.4032 13.4796C4.38821 12.1405 4.90771 11.6362 6.02907 12.1938C8.36458 13.3544 10.5803 13.3418 12.8635 12.0575C13.8336 11.5109 14.3306 12.0716 14.401 13.1586C14.5747 15.8572 12.1823 18.5009 9.49193 18.5558V18.5542Z" fill="black"/>
</g>
<path d="M31.2382 20.47C30.0019 20.47 28.8996 20.1767 27.9309 19.59C26.9622 19.0033 26.2103 18.15 25.675 17.03C25.1397 15.91 24.8721 14.59 24.8721 13.07C24.8721 11.5767 25.1334 10.27 25.6559 9.15001C26.1784 8.01666 26.924 7.15 27.8927 6.55C28.8613 5.93666 29.9893 5.63 31.2765 5.63C33.0225 5.63 34.3927 6.07667 35.3868 6.97001C36.3809 7.86335 37.0309 9.17666 37.3368 10.91L34.3162 11.03C34.1504 10.1233 33.8063 9.42335 33.2838 8.93001C32.774 8.43667 32.1048 8.19001 31.2765 8.19001C30.5628 8.19001 29.9511 8.39001 29.4412 8.79001C28.9313 9.19001 28.5363 9.75667 28.2559 10.49C27.9882 11.2233 27.8544 12.0833 27.8544 13.07C27.8544 14.07 27.9882 14.9367 28.2559 15.67C28.5363 16.39 28.9313 16.9433 29.4412 17.33C29.9637 17.7167 30.5691 17.91 31.2574 17.91C32.1622 17.91 32.8696 17.65 33.3794 17.13C33.8893 16.5967 34.2143 15.8367 34.3544 14.85L37.3941 14.97C37.1137 16.73 36.4511 18.09 35.4059 19.05C34.3607 19.9967 32.9716 20.47 31.2382 20.47ZM38.7601 5.95H41.6277V11.93H41.2454C41.3727 11.0367 41.7296 10.3567 42.316 9.89001C42.9021 9.42335 43.616 9.19001 44.4571 9.19001C45.566 9.19001 46.4198 9.56334 47.0189 10.31C47.6179 11.0433 47.9174 12.0233 47.9174 13.25V20.15H45.0498V13.97C45.0498 13.1567 44.9286 12.5567 44.6866 12.17C44.4443 11.77 44.0492 11.57 43.5013 11.57C42.9021 11.57 42.437 11.7833 42.1057 12.21C41.787 12.6367 41.6277 13.25 41.6277 14.05V20.15H38.7601V5.95ZM52.7089 20.39C51.6255 20.39 50.7524 20.13 50.0898 19.61C49.4398 19.09 49.1148 18.3767 49.1148 17.47C49.1148 16.5367 49.3887 15.81 49.9368 15.29C50.4847 14.77 51.3324 14.39 52.4795 14.15L55.7868 13.47C55.7868 12.7767 55.6339 12.2567 55.328 11.91C55.0347 11.55 54.6015 11.37 54.028 11.37C53.4927 11.37 53.0721 11.5033 52.7662 11.77C52.4604 12.0233 52.2564 12.4033 52.1545 12.91L49.2868 12.77C49.478 11.5967 49.9814 10.71 50.7971 10.11C51.6127 9.49666 52.6898 9.19001 54.028 9.19001C55.5574 9.19001 56.7108 9.57001 57.4883 10.33C58.2656 11.09 58.6545 12.2033 58.6545 13.67V17.33C58.6545 17.6233 58.699 17.8233 58.7883 17.93C58.8774 18.0367 59.024 18.09 59.228 18.09H59.5148V20.15C59.4127 20.1767 59.2597 20.2033 59.056 20.23C58.8648 20.2567 58.6736 20.27 58.4824 20.27C57.7814 20.27 57.2207 20.0833 56.8001 19.71C56.3921 19.3367 56.1883 18.6967 56.1883 17.79L56.4368 17.99C56.2457 18.7233 55.8251 19.31 55.1751 19.75C54.5251 20.1767 53.703 20.39 52.7089 20.39ZM53.3971 18.33C53.8686 18.33 54.2829 18.2367 54.6398 18.05C55.0093 17.85 55.2898 17.5633 55.481 17.19C55.6847 16.8167 55.7868 16.3767 55.7868 15.87V15.35L53.4545 15.87C52.9828 15.9633 52.6324 16.1233 52.403 16.35C52.1736 16.5633 52.0589 16.8433 52.0589 17.19C52.0589 17.5633 52.1671 17.85 52.3839 18.05C52.6133 18.2367 52.9509 18.33 53.3971 18.33ZM64.2045 20.15C63.1467 20.15 62.3692 19.8967 61.8722 19.39C61.3751 18.87 61.1266 18.05 61.1266 16.93V6.91H63.9942V16.57C63.9942 17.0767 64.0961 17.43 64.3001 17.63C64.5041 17.8167 64.8226 17.91 65.256 17.91H66.6898V20.15H64.2045ZM59.4825 9.43001H66.6898V11.67H59.4825V9.43001ZM73.8071 20.39C73.0935 20.39 72.4689 20.2367 71.9336 19.93C71.4111 19.61 71.0031 19.1567 70.7101 18.57L70.6527 20.15H67.9189V5.95H70.7865V10.95C71.067 10.43 71.4685 10.01 71.991 9.69001C72.5262 9.35667 73.1317 9.19001 73.8071 9.19001C74.6611 9.19001 75.4067 9.42335 76.0439 9.89001C76.6939 10.3433 77.191 10.9967 77.5351 11.85C77.892 12.69 78.0704 13.67 78.0704 14.79C78.0704 15.91 77.892 16.8967 77.5351 17.75C77.191 18.59 76.6939 19.2433 76.0439 19.71C75.4067 20.1633 74.6611 20.39 73.8071 20.39ZM73.0042 18.09C73.6542 18.09 74.1704 17.7967 74.5527 17.21C74.9351 16.6233 75.1262 15.8167 75.1262 14.79C75.1262 13.75 74.9351 12.9433 74.5527 12.37C74.1832 11.7833 73.6733 11.49 73.0233 11.49C72.5517 11.49 72.1439 11.6233 71.7998 11.89C71.4685 12.1433 71.2134 12.5167 71.0351 13.01C70.8693 13.5033 70.7865 14.0967 70.7865 14.79C70.7865 15.47 70.8693 16.0567 71.0351 16.55C71.2134 17.0433 71.4685 17.4233 71.7998 17.69C72.1439 17.9567 72.5454 18.09 73.0042 18.09ZM82.6399 20.39C81.5821 20.39 80.7537 20.0367 80.1546 19.33C79.5684 18.6233 79.2752 17.6233 79.2752 16.33V9.43001H82.1428V15.63C82.1428 16.4567 82.264 17.0633 82.506 17.45C82.7483 17.8233 83.1306 18.01 83.6531 18.01C84.2394 18.01 84.692 17.7967 85.0105 17.37C85.342 16.9433 85.5075 16.3167 85.5075 15.49V9.43001H88.3752V20.15H85.756L85.6796 17.07L86.0428 17.15C85.8899 18.2167 85.5266 19.0233 84.9531 19.57C84.3796 20.1167 83.6086 20.39 82.6399 20.39ZM93.7421 20.39C92.9009 20.39 92.1616 20.1633 91.5244 19.71C90.8872 19.2433 90.3965 18.59 90.0524 17.75C89.721 16.91 89.5553 15.9233 89.5553 14.79C89.5553 13.6567 89.7273 12.67 90.0715 11.83C90.4156 10.99 90.8998 10.3433 91.5244 9.89001C92.1616 9.42335 92.9009 9.19001 93.7421 9.19001C94.4685 9.19001 95.0931 9.35 95.6156 9.67C96.1509 9.97666 96.5587 10.4033 96.8391 10.95V5.95H99.7068V20.15H96.9538L96.8965 18.57C96.616 19.1433 96.1954 19.59 95.6347 19.91C95.0866 20.23 94.4557 20.39 93.7421 20.39ZM94.6979 18.09C95.1568 18.09 95.5454 17.9633 95.8641 17.71C96.1828 17.4567 96.4248 17.09 96.5906 16.61C96.7563 16.1167 96.8391 15.51 96.8391 14.79C96.8391 14.07 96.7563 13.4633 96.5906 12.97C96.4248 12.4767 96.1828 12.11 95.8641 11.87C95.5454 11.6167 95.1568 11.49 94.6979 11.49C94.0225 11.49 93.4872 11.79 93.0921 12.39C92.6969 12.9767 92.4994 13.7767 92.4994 14.79C92.4994 15.79 92.6969 16.59 93.0921 17.19C93.4998 17.79 94.0351 18.09 94.6979 18.09ZM105.248 20.39C104.407 20.39 103.667 20.1633 103.03 19.71C102.393 19.2433 101.902 18.59 101.558 17.75C101.227 16.91 101.061 15.9233 101.061 14.79C101.061 13.6567 101.233 12.67 101.577 11.83C101.921 10.99 102.406 10.3433 103.03 9.89001C103.667 9.42335 104.407 9.19001 105.248 9.19001C105.974 9.19001 106.599 9.35 107.121 9.67C107.657 9.97666 108.064 10.4033 108.345 10.95V5.95H111.213V20.15H108.46L108.402 18.57C108.122 19.1433 107.701 19.59 107.14 19.91C106.592 20.23 105.961 20.39 105.248 20.39ZM106.204 18.09C106.663 18.09 107.051 17.9633 107.37 17.71C107.688 17.4567 107.931 17.09 108.096 16.61C108.262 16.1167 108.345 15.51 108.345 14.79C108.345 14.07 108.262 13.4633 108.096 12.97C107.931 12.4767 107.688 12.11 107.37 11.87C107.051 11.6167 106.663 11.49 106.204 11.49C105.528 11.49 104.993 11.79 104.598 12.39C104.203 12.9767 104.005 13.7767 104.005 14.79C104.005 15.79 104.203 16.59 104.598 17.19C105.006 17.79 105.541 18.09 106.204 18.09ZM114.018 20.91H115.375C115.694 20.91 115.93 20.8566 116.083 20.75C116.248 20.6567 116.376 20.4833 116.465 20.23L116.694 19.61H115.91L112.297 9.43001H115.241L117.574 16.81L119.791 9.43001H122.716L118.778 21.17C118.536 21.8766 118.198 22.3834 117.765 22.69C117.344 22.9966 116.745 23.15 115.968 23.15H114.018V20.91Z" fill="black"/>
<defs>
<filter id="filter0_ii_210_294" x="0" y="3.34998" width="18.7502" height="25.6001" filterUnits="userSpaceOnUse" color-interpolation-filters="sRGB">
<feFlood flood-opacity="0" result="BackgroundImageFix"/>
<feBlend mode="normal" in="SourceGraphic" in2="BackgroundImageFix" result="shape"/>
<feColorMatrix in="SourceAlpha" type="matrix" values="0 0 0 0 0 0 0 0 0 0 0 0 0 0 0 0 0 0 127 0" result="hardAlpha"/>
<feOffset dy="1"/>
<feGaussianBlur stdDeviation="0.5"/>
<feComposite in2="hardAlpha" operator="arithmetic" k2="-1" k3="1"/>
<feColorMatrix type="matrix" values="0 0 0 0 1 0 0 0 0 1 0 0 0 0 1 0 0 0 0.32 0"/>
<feBlend mode="normal" in2="shape" result="effect1_innerShadow_210_294"/>
<feColorMatrix in="SourceAlpha" type="matrix" values="0 0 0 0 0 0 0 0 0 0 0 0 0 0 0 0 0 0 127 0" result="hardAlpha"/>
<feOffset dy="6"/>
<feGaussianBlur stdDeviation="6"/>
<feComposite in2="hardAlpha" operator="arithmetic" k2="-1" k3="1"/>
<feColorMatrix type="matrix" values="0 0 0 0 1 0 0 0 0 1 0 0 0 0 1 0 0 0 0.2 0"/>
<feBlend mode="normal" in2="effect1_innerShadow_210_294" result="effect2_innerShadow_210_294"/>
</filter>
</defs>
</svg>
