<svg width="24" height="24" viewBox="0 0 24 24" fill="none" xmlns="http://www.w3.org/2000/svg">
<path d="M5 11H7C8.25454 11 9.26397 10.6546 9.95928 9.95928C10.6546 9.26397 11 8.25454 11 7V5C11 3.74546 10.6546 2.73603 9.95928 2.04072C9.26397 1.34541 8.25454 1 7 1H5C3.74546 1 2.73603 1.34541 2.04072 2.04072C1.34541 2.73603 1 3.74546 1 5V7C1 8.25454 1.34541 9.26397 2.04072 9.95928C2.73603 10.6546 3.74546 11 5 11ZM3 5C3 4.23823 3.16255 3.75601 3.45928 3.45928C3.75601 3.16255 4.23823 3 5 3H7C7.76177 3 8.24399 3.16255 8.54072 3.45928C8.83745 3.75601 9 4.23823 9 5V7C9 7.76177 8.83745 8.24399 8.54072 8.54072C8.24399 8.83745 7.76177 9 7 9H5C4.23823 9 3.75601 8.83745 3.45928 8.54072C3.16255 8.24399 3 7.76177 3 7V5Z" fill="#787486" stroke="#787486" stroke-width="0.5"/>
<path d="M17 11H19C20.2545 11 21.264 10.6546 21.9593 9.95928C22.6546 9.26397 23 8.25454 23 7V5C23 3.74546 22.6546 2.73603 21.9593 2.04072C21.264 1.34541 20.2545 1 19 1H17C15.7455 1 14.736 1.34541 14.0407 2.04072C13.3454 2.73603 13 3.74546 13 5V7C13 8.25454 13.3454 9.26397 14.0407 9.95928C14.736 10.6546 15.7455 11 17 11ZM15 5C15 4.23823 15.1625 3.75601 15.4593 3.45928C15.756 3.16255 16.2382 3 17 3H19C19.7618 3 20.244 3.16255 20.5407 3.45928C20.8375 3.75601 21 4.23823 21 5V7C21 7.76177 20.8375 8.24399 20.5407 8.54072C20.244 8.83745 19.7618 9 19 9H17C16.2382 9 15.756 8.83745 15.4593 8.54072C15.1625 8.24399 15 7.76177 15 7V5Z" fill="#787486" stroke="#787486" stroke-width="0.5"/>
<path d="M17 23H19C20.2545 23 21.264 22.6546 21.9593 21.9593C22.6546 21.264 23 20.2545 23 19V17C23 15.7455 22.6546 14.736 21.9593 14.0407C21.264 13.3454 20.2545 13 19 13H17C15.7455 13 14.736 13.3454 14.0407 14.0407C13.3454 14.736 13 15.7455 13 17V19C13 20.2545 13.3454 21.264 14.0407 21.9593C14.736 22.6546 15.7455 23 17 23ZM15 17C15 16.2382 15.1625 15.756 15.4593 15.4593C15.756 15.1625 16.2382 15 17 15H19C19.7618 15 20.244 15.1625 20.5407 15.4593C20.8375 15.756 21 16.2382 21 17V19C21 19.7618 20.8375 20.244 20.5407 20.5407C20.244 20.8375 19.7618 21 19 21H17C16.2382 21 15.756 20.8375 15.4593 20.5407C15.1625 20.244 15 19.7618 15 19V17Z" fill="#787486" stroke="#787486" stroke-width="0.5"/>
<path d="M5 23H7C8.25454 23 9.26397 22.6546 9.95928 21.9593C10.6546 21.264 11 20.2545 11 19V17C11 15.7455 10.6546 14.736 9.95928 14.0407C9.26397 13.3454 8.25454 13 7 13H5C3.74546 13 2.73603 13.3454 2.04072 14.0407C1.34541 14.736 1 15.7455 1 17V19C1 20.2545 1.34541 21.264 2.04072 21.9593C2.73603 22.6546 3.74546 23 5 23ZM3 17C3 16.2382 3.16255 15.756 3.45928 15.4593C3.75601 15.1625 4.23823 15 5 15H7C7.76177 15 8.24399 15.1625 8.54072 15.4593C8.83745 15.756 9 16.2382 9 17V19C9 19.7618 8.83745 20.244 8.54072 20.5407C8.24399 20.8375 7.76177 21 7 21H5C4.23823 21 3.75601 20.8375 3.45928 20.5407C3.16255 20.244 3 19.7618 3 19V17Z" fill="#787486" stroke="#787486" stroke-width="0.5"/>
</svg>
