<svg width="19" height="20" viewBox="0 0 19 20" fill="none" xmlns="http://www.w3.org/2000/svg">
<g clip-path="url(#clip0_442_8414)">
<path d="M13.1344 6.21128C12.8003 5.87735 12.3473 5.68976 11.875 5.68976C11.4027 5.68976 10.9497 5.87735 10.6157 6.21128L10.3396 6.48678L11.1791 7.32635L11.4552 7.05085C11.5672 6.94269 11.7172 6.88284 11.8729 6.8842C12.0286 6.88555 12.1775 6.94799 12.2876 7.05808C12.3976 7.16817 12.4601 7.31709 12.4614 7.47276C12.4628 7.62844 12.4029 7.77843 12.2948 7.89041L10.3396 9.84563L11.1791 10.6852L13.1344 8.72997C13.4683 8.39594 13.6559 7.94295 13.6559 7.47063C13.6559 6.9983 13.4683 6.54532 13.1344 6.21128ZM7.54479 12.6404C7.43281 12.7486 7.28282 12.8084 7.12714 12.8071C6.97147 12.8057 6.82255 12.7433 6.71246 12.6332C6.60237 12.5231 6.53993 12.3742 6.53858 12.2185C6.53722 12.0628 6.59707 11.9128 6.70523 11.8008L8.66045 9.84563L7.82088 9.00607L5.86566 10.9613C5.69554 11.1256 5.55984 11.3222 5.46648 11.5395C5.37313 11.7568 5.32399 11.9905 5.32194 12.227C5.31988 12.4636 5.36495 12.6981 5.45451 12.917C5.54408 13.1359 5.67634 13.3348 5.84359 13.502C6.01083 13.6693 6.20971 13.8016 6.42862 13.8911C6.64753 13.9807 6.88208 14.0258 7.1186 14.0237C7.35511 14.0216 7.58885 13.9725 7.80617 13.8792C8.02348 13.7858 8.22004 13.6501 8.38435 13.48L8.66045 13.2045L7.82088 12.3649L7.54479 12.6404ZM8.38435 6.21188C8.04704 5.89527 7.59979 5.72232 7.13722 5.72961C6.67466 5.7369 6.23308 5.92387 5.90592 6.25096C5.57876 6.57804 5.39169 7.01958 5.38428 7.48214C5.37688 7.9447 5.54973 8.39199 5.86626 8.72938L6.14176 9.00547L6.98132 8.16591L6.70582 7.88982C6.59766 7.77783 6.53782 7.62785 6.53917 7.47217C6.54052 7.31649 6.60297 7.16757 6.71305 7.05749C6.82314 6.9474 6.97206 6.88496 7.12774 6.8836C7.28342 6.88225 7.4334 6.9421 7.54538 7.05025L9.50001 9.00607L10.3396 8.1665L8.38435 6.21188Z" fill="#787486"/>
<path d="M13.1343 10.9613L12.8588 10.6852L12.0193 11.5247L12.2948 11.8008C12.4029 11.9128 12.4628 12.0628 12.4614 12.2185C12.4601 12.3742 12.3976 12.5231 12.2875 12.6332C12.1775 12.7433 12.0285 12.8057 11.8729 12.8071C11.7172 12.8084 11.5672 12.7486 11.4552 12.6404L9.49999 10.6852L8.66043 11.5247L10.6156 13.48C10.9516 13.8044 11.4015 13.984 11.8686 13.9799C12.3356 13.9759 12.7824 13.7885 13.1126 13.4583C13.4429 13.128 13.6302 12.6812 13.6343 12.2142C13.6383 11.7472 13.4588 11.2972 13.1343 10.9613Z" fill="#787486"/>
<path d="M9.5 18.7519C9.39486 18.752 9.29158 18.7241 9.20075 18.6711L2.07575 14.5149C1.98611 14.4626 1.91174 14.3877 1.86007 14.2977C1.8084 14.2077 1.78122 14.1057 1.78125 14.0019V5.68938C1.78122 5.5856 1.8084 5.48361 1.86007 5.3936C1.91174 5.30359 1.98611 5.22869 2.07575 5.17638L9.20075 1.02013C9.29157 0.967136 9.39484 0.939209 9.5 0.939209C9.60516 0.939209 9.70843 0.967136 9.79925 1.02013L16.9242 5.17638L16.3258 6.20238L9.5 2.2207L2.96875 6.0302V13.6611L9.5 17.4712L16.0312 13.6611V9.25188H17.2188V14.0019C17.2188 14.1057 17.1916 14.2077 17.1399 14.2977C17.0883 14.3877 17.0139 14.4626 16.9242 14.5149L9.79925 18.6711C9.70842 18.7241 9.60514 18.752 9.5 18.7519Z" fill="#787486"/>
</g>
<defs>
<clipPath id="clip0_442_8414">
<rect width="19" height="19" fill="white" transform="translate(0 0.345642)"/>
</clipPath>
</defs>
</svg>
