<svg width="36" height="36" viewBox="0 0 36 36" fill="none" xmlns="http://www.w3.org/2000/svg">
<g filter="url(#filter0_ii_1403_13298)">
<path d="M31.3503 35.4872C33.7005 35.4648 35.014 34.209 35.0252 31.9072C35.0531 26.7638 35.1565 21.6177 34.9972 16.4799C34.8156 10.6065 32.1523 6.03092 27.1444 2.89288C23.2934 0.476414 19.0177 0.244277 14.6721 0.674989C10.7009 1.06655 7.33344 2.79499 4.57796 5.6981C0.668308 9.80944 -0.239939 14.8409 0.176457 20.25C0.782886 28.1343 6.46991 34.3097 14.2892 35.2326C17.3437 35.5934 23.5729 35.4256 23.5729 35.4927C26.1663 35.4927 28.7569 35.5123 31.3503 35.4872ZM17.802 27.6504C12.9422 27.7455 8.36185 23.3769 8.30317 18.5887C8.27522 16.1974 9.24495 15.2968 11.3381 16.2925C15.6977 18.365 19.8337 18.3426 24.0955 16.0492C25.9064 15.0731 26.8342 16.0743 26.9655 18.0153C27.2897 22.8343 22.8239 27.5553 17.802 27.6532V27.6504Z" fill="#0641FB"/>
</g>
<defs>
<filter id="filter0_ii_1403_13298" x="0.0839844" y="0.5" width="35" height="41" filterUnits="userSpaceOnUse" color-interpolation-filters="sRGB">
<feFlood flood-opacity="0" result="BackgroundImageFix"/>
<feBlend mode="normal" in="SourceGraphic" in2="BackgroundImageFix" result="shape"/>
<feColorMatrix in="SourceAlpha" type="matrix" values="0 0 0 0 0 0 0 0 0 0 0 0 0 0 0 0 0 0 127 0" result="hardAlpha"/>
<feOffset dy="1"/>
<feGaussianBlur stdDeviation="0.5"/>
<feComposite in2="hardAlpha" operator="arithmetic" k2="-1" k3="1"/>
<feColorMatrix type="matrix" values="0 0 0 0 1 0 0 0 0 1 0 0 0 0 1 0 0 0 0.32 0"/>
<feBlend mode="normal" in2="shape" result="effect1_innerShadow_1403_13298"/>
<feColorMatrix in="SourceAlpha" type="matrix" values="0 0 0 0 0 0 0 0 0 0 0 0 0 0 0 0 0 0 127 0" result="hardAlpha"/>
<feOffset dy="6"/>
<feGaussianBlur stdDeviation="6"/>
<feComposite in2="hardAlpha" operator="arithmetic" k2="-1" k3="1"/>
<feColorMatrix type="matrix" values="0 0 0 0 1 0 0 0 0 1 0 0 0 0 1 0 0 0 0.2 0"/>
<feBlend mode="normal" in2="effect1_innerShadow_1403_13298" result="effect2_innerShadow_1403_13298"/>
</filter>
</defs>
</svg>
