<svg width="12" height="32" viewBox="0 0 12 32" fill="none" xmlns="http://www.w3.org/2000/svg">
<path d="M10.8691 16.9728L2.11906 30.7228C2.03776 30.8506 1.94125 30.9519 1.83503 31.0211C1.72881 31.0902 1.61497 31.1258 1.5 31.1258C1.38503 31.1258 1.27118 31.0902 1.16496 31.0211C1.05874 30.9519 0.962232 30.8506 0.880935 30.7228C0.799639 30.5951 0.735151 30.4434 0.691154 30.2765C0.647156 30.1096 0.624512 29.9307 0.624512 29.75C0.624512 29.5694 0.647156 29.3905 0.691154 29.2235C0.735151 29.0566 0.799639 28.905 0.880935 28.7772L9.01297 16L0.880935 3.22284C0.71675 2.96484 0.624512 2.61491 0.624512 2.25003C0.624512 1.88516 0.71675 1.53523 0.880935 1.27722C1.04512 1.01921 1.2678 0.874268 1.5 0.874268C1.73219 0.874268 1.95488 1.01921 2.11906 1.27722L10.8691 15.0272C10.9504 15.1549 11.015 15.3066 11.059 15.4735C11.103 15.6404 11.1257 15.8193 11.1257 16C11.1257 16.1807 11.103 16.3596 11.059 16.5266C11.015 16.6935 10.9504 16.8451 10.8691 16.9728Z" fill="#A0AEC0"/>
</svg>
