<svg width="27" height="27" viewBox="0 0 27 27" fill="none" xmlns="http://www.w3.org/2000/svg">
<g clip-path="url(#clip0_442_6925)">
<path fill-rule="evenodd" clip-rule="evenodd" d="M13.5 2.25C7.28663 2.25 2.25 7.28663 2.25 13.5C2.25 19.7134 7.28663 24.75 13.5 24.75C19.7134 24.75 24.75 19.7134 24.75 13.5C24.75 7.28663 19.7134 2.25 13.5 2.25ZM9.5625 10.6875C9.5625 10.1704 9.66435 9.6584 9.86222 9.18068C10.0601 8.70296 10.3501 8.2689 10.7158 7.90327C11.0814 7.53764 11.5155 7.2476 11.9932 7.04972C12.4709 6.85185 12.9829 6.75 13.5 6.75C14.0171 6.75 14.5291 6.85185 15.0068 7.04972C15.4845 7.2476 15.9186 7.53764 16.2842 7.90327C16.6499 8.2689 16.9399 8.70296 17.1378 9.18068C17.3357 9.6584 17.4375 10.1704 17.4375 10.6875C17.4375 11.7318 17.0227 12.7333 16.2842 13.4717C15.5458 14.2102 14.5443 14.625 13.5 14.625C12.4557 14.625 11.4542 14.2102 10.7158 13.4717C9.97734 12.7333 9.5625 11.7318 9.5625 10.6875ZM20.5402 19.107C19.6981 20.1663 18.6275 21.0217 17.4084 21.6092C16.1894 22.1968 14.8533 22.5013 13.5 22.5C12.1467 22.5013 10.8106 22.1968 9.59156 21.6092C8.37247 21.0217 7.30188 20.1663 6.45975 19.107C8.28338 17.7986 10.7719 16.875 13.5 16.875C16.2281 16.875 18.7166 17.7986 20.5402 19.107Z" fill="#0641FB"/>
</g>
<defs>
<clipPath id="clip0_442_6925">
<rect width="27" height="27" fill="white"/>
</clipPath>
</defs>
</svg>
