<svg width="18" height="18" viewBox="0 0 18 18" fill="none" xmlns="http://www.w3.org/2000/svg">
<path d="M15.4856 9.2981L10.4231 14.3606C10.3432 14.4351 10.2374 14.4757 10.1281 14.4738C10.0188 14.4718 9.91451 14.4276 9.83721 14.3503C9.75992 14.273 9.71564 14.1687 9.71371 14.0594C9.71179 13.9501 9.75235 13.8443 9.82687 13.7643L14.1687 9.42185H2.8125C2.70061 9.42185 2.59331 9.3774 2.51419 9.29829C2.43507 9.21917 2.39063 9.11186 2.39062 8.99997C2.39062 8.88809 2.43507 8.78078 2.51419 8.70166C2.59331 8.62255 2.70061 8.5781 2.8125 8.5781H14.1687L9.82687 4.2356C9.75235 4.15563 9.71179 4.04985 9.71371 3.94056C9.71564 3.83126 9.75992 3.72698 9.83721 3.64969C9.91451 3.57239 10.0188 3.52812 10.1281 3.52619C10.2374 3.52426 10.3432 3.56483 10.4231 3.63935L15.4856 8.70185C15.5646 8.78095 15.609 8.88818 15.609 8.99997C15.609 9.11177 15.5646 9.219 15.4856 9.2981Z" fill="black"/>
</svg>
