<svg width="15" height="15" viewBox="0 0 15 15" fill="none" xmlns="http://www.w3.org/2000/svg">
    <g clip-path="url(#clip0_1403_13467)">
        <path
            d="M13.125 15H11.875V11.8481C11.8745 11.3581 11.6796 10.8883 11.3331 10.5419C10.9867 10.1954 10.5169 10.0005 10.0269 10H4.97312C4.48312 10.0005 4.01333 10.1954 3.66685 10.5419C3.32037 10.8883 3.1255 11.3581 3.125 11.8481V15H1.875V11.8481C1.87599 11.0268 2.20272 10.2393 2.78352 9.65852C3.36431 9.07772 4.15176 8.75099 4.97312 8.75H10.0269C10.8482 8.75099 11.6357 9.07772 12.2165 9.65852C12.7973 10.2393 13.124 11.0268 13.125 11.8481V15Z"
            fill="#0F172A" />
        <path
            d="M7.5 7.5C6.75832 7.5 6.0333 7.28007 5.41661 6.86801C4.79993 6.45596 4.31928 5.87029 4.03545 5.18506C3.75162 4.49984 3.67736 3.74584 3.82206 3.01841C3.96675 2.29098 4.3239 1.6228 4.84835 1.09835C5.3728 0.573904 6.04098 0.216751 6.76841 0.0720569C7.49584 -0.0726377 8.24984 0.00162482 8.93506 0.285453C9.62029 0.569282 10.206 1.04993 10.618 1.66661C11.0301 2.2833 11.25 3.00832 11.25 3.75C11.249 4.74426 10.8536 5.69751 10.1506 6.40056C9.44751 7.1036 8.49426 7.49901 7.5 7.5ZM7.5 1.25C7.00555 1.25 6.5222 1.39662 6.11108 1.67133C5.69995 1.94603 5.37952 2.33648 5.1903 2.79329C5.00108 3.25011 4.95158 3.75277 5.04804 4.23773C5.1445 4.72268 5.3826 5.16814 5.73223 5.51777C6.08187 5.8674 6.52732 6.1055 7.01228 6.20197C7.49723 6.29843 7.9999 6.24892 8.45671 6.0597C8.91353 5.87048 9.30397 5.55005 9.57868 5.13893C9.85338 4.7278 10 4.24445 10 3.75C10 3.08696 9.73661 2.45108 9.26777 1.98223C8.79893 1.51339 8.16304 1.25 7.5 1.25Z"
            fill="#0F172A" />
    </g>
    <defs>
        <clipPath id="clip0_1403_13467">
            <rect width="15" height="15" fill="white" />
        </clipPath>
    </defs>
</svg>
    